<svg xmlns="http://www.w3.org/2000/svg" width="888" height="342.09037" viewBox="0 0 888 342.09037" xmlns:xlink="http://www.w3.org/1999/xlink"><path d="M560.17353,337.74452l-141.49021-4.01703s10.64948-63.71004-23.51937-81.39458c-23.2902-12.05805-43.96498-68.39325-38.08171-106.71786,.07639-.51339,.15956-1.01984,.24984-1.51935,2.98313-17.1642,11.50282-30.45026,27.7859-34.0579,52.65828-11.6556,90.24049-2.61558,90.24049-2.61558,0,0,8.70007,.11111,21.59063,2.53224,.45784,.08334,.91584,.17345,1.38062,.27067,36.49292,7.15295,103.94255,32.61478,106.86352,123.01483,4.01687,124.20117-45.01972,104.50456-45.01972,104.50456Z" fill="#3f3d56"/><path d="M496.94911,109.95447c-.23595,6.48-1.70685,12.91833-4.3917,19.0445-5.56416,12.68933-15.70041,22.38147-28.54219,27.29334-38.45655,14.72224-83.34432,.11806-106.04491-15.71413-.09028,.4995-1.89392,9.98611-1.97031,10.4995,10.05292,6.87534,59.24219,13.51225,68.57355,13.51225,14.16701,0,27.8069-2.35185,39.94117-7.00017,13.18883-5.05077,23.59559-15.00646,29.31236-28.03591,2.72652-6.21627,4.23198-12.75166,4.50265-19.32872-.46478-.09722-.92279-.18734-1.38062-.27067Z" fill="#a5bb61"/><path d="M507.41196,118.20499l-22.55432-56.70799s27.06518-46.39745,5.79968-51.55272c-21.2655-5.15527-43.17541,22.55432-43.17541,22.55432,0,0-40.59777-14.177-56.06359-2.57764,0,0-25.77636-36.08691-41.24218-28.99841-15.46582,7.0885,5.49524,58.17995,5.49524,58.17995,0,0-31.91601,46.85873-7.42846,73.9239,24.48754,27.06518,116.63804,48.97509,159.16903-14.82141Z" fill="#3f3d56"/><path d="M1,336.07768H888s0-2,0-2H1c-.55228,0-1,.44771-1,1H0c0,.55229,.44771,1,1,1Z" fill="#3f3d56"/><path d="M555.78296,303.8031c7.67872,3.41594,15.7015,6.90177,24.09913,6.56832,8.39763-.33344,17.23466-5.74145,18.54324-14.04319,.67551-4.28548-.66427-8.88317,.97655-12.89931,2.2077-5.40365,9.32913-7.48754,14.86485-5.63576,5.53573,1.85179,9.60248,6.62694,12.51835,11.68373,5.45541,9.46093,7.64139,21.87821,1.79208,31.1008-5.0707,7.99495-14.68796,11.60773-23.63386,14.70646-11.91599,4.12752-25.21981,8.2241-36.76632,3.15406-11.6126-5.09906-17.93822-19.83135-13.63807-31.76289" fill="#3f3d56"/><path d="M428.73625,92.7071s-13.87567-5.55027-22.89486,1.38757l10.40676,15.95702,12.48811-17.34459Z" fill="#a5bb61"/><path d="M355.88896,165.55439l25.67,136.67539s-38.85189,39.54567,11.10054,38.85189c49.95243-.69378,35.38297-26.36378,35.38297-26.36378l-15.95702-118.63701" fill="#3f3d56"/><path d="M391.39893,342.09037c-13.52734,0-21.70996-3.10107-24.32861-9.2251-4.77002-11.15576,10.75732-28.16797,13.41895-30.96631l-17.26074-102.18262,1.97168-.33301,17.42969,103.18262-.35742,.36426c-.17969,.18311-17.93994,18.44922-13.36279,29.1499,2.35059,5.49609,10.32129,8.19385,23.73633,8.00146,18.64697-.25879,30.67188-4.1665,34.77441-11.29932,3.69434-6.42383-.2085-13.50146-.24854-13.57227l-.09424-.16748-.02637-.19141-11.10059-82.56006,1.98242-.2666,11.07617,82.37842c.65674,1.24756,4.10889,8.45801,.15576,15.35693-4.52832,7.90234-16.80566,12.04834-36.4917,12.32178-.42969,.00586-.85449,.00879-1.27441,.00879Z" fill="#2f2e41"/><path d="M421.10463,165.55439l25.67,136.67539s-38.85189,39.54567,11.10054,38.85189c49.95243-.69378,35.38297-26.36378,35.38297-26.36378l-15.95702-118.63701" fill="#3f3d56"/><path d="M456.61426,342.09037c-13.52734,0-21.70947-3.10107-24.32812-9.2251-4.76562-11.14453,10.72607-28.13477,13.41016-30.95801l-10.31152-54.99609,1.96582-.36816,10.50293,56.01514-.36572,.37207c-.17969,.18311-17.93994,18.44922-13.3623,29.1499,2.35107,5.49561,10.32617,8.2041,23.73584,8.00146,18.6626-.25928,30.69092-4.17236,34.78467-11.31641,3.69238-6.44434-.21729-13.4834-.25732-13.55371l-.0957-.16846-15.98291-118.82861,1.98242-.2666,15.93262,118.45508c.65674,1.24756,4.10889,8.45801,.15576,15.35693-4.52832,7.90234-16.80615,12.04834-36.49219,12.32178-.42969,.00586-.85449,.00879-1.27441,.00879Z" fill="#2f2e41"/></svg>