<?xml version="1.0" encoding="UTF-8"?>
<svg width="512pt" height="512pt" version="1.1" viewBox="0 0 512 512" xmlns="http://www.w3.org/2000/svg">
 <g>
  <path d="m256 24c-59.562 0-108 48.441-108 108 0 95.277 99.461 160.02 103.68 162.74 1.3203 0.83984 2.8203 1.2617 4.3203 1.2617s3-0.42188 4.3203-1.2617c4.2383-2.7188 103.68-67.461 103.68-162.74 0-59.562-48.441-108-108-108zm0 152c-24.301 0-44-19.699-44-44 0-24.301 19.699-44 44-44s44 19.699 44 44c0 24.301-19.699 44-44 44z"/>
  <path d="m487.66 460.04-43.219-256c-1.9609-11.621-12-20.039-23.879-20.039h-42.578c-4.4219 0-8 3.5781-8 8s3.5781 8 8 8h42.578c4.0391 0 7.4414 2.8203 8.1016 6.6992l10.602 62.719-55.262 55.262-50.34-50.34c-3.1211-3.1211-8.1797-3.1211-11.32 0-3.1211 3.1211-3.1211 8.1797 0 11.32l50.34 50.34-97.164 97.164-85.863-85.938c-3.1211-3.1211-8.1992-3.1211-11.32 0-3.1211 3.1211-3.1211 8.1797 0 11.32l85.863 85.938-27.52 27.52h-188.48c-2.4609 0-4.7617-1.0586-6.3398-2.9219-1.5195-1.8008-2.1602-4.0781-1.7617-6.3789l7.2188-42.719 142.34-142.34c3.1211-3.1211 3.1211-8.1797 0-11.32-3.1211-3.1211-8.1797-3.1211-11.32 0l-34.34 34.34-65.48-65.48 4.8203-28.5c0.66016-3.8789 4.0586-6.6992 8.1016-6.6992h42.578c4.4219 0 8-3.5781 8-8s-3.5781-8-8-8h-42.578c-11.879 0-21.918 8.418-23.879 20.039l-43.219 256.02c-1.1797 6.9219 0.76172 14 5.3203 19.379 4.6211 5.4609 11.379 8.582 18.559 8.582h255.8c4.4219 0 8-3.5781 8-8 0-4.4219-3.5781-8-8-8h-44.68l183.22-183.22 29.359 173.92c0.37891 2.3008-0.23828 4.5781-1.7617 6.3789-1.5586 1.8594-3.8789 2.9219-6.3398 2.9219h-31.781c-4.4219 0-8 3.5781-8 8s3.5781 8 8 8h31.781c7.1797 0 13.941-3.1211 18.559-8.582 4.5586-5.3789 6.5-12.441 5.3203-19.379zm-354.98-148.04-80.777 80.758 23.34-138.2z"/>
  <path d="m392 472h-47.98c-4.4219 0-8 3.5781-8 8s3.5781 8 8 8h47.98c4.4219 0 8-3.5781 8-8s-3.5781-8-8-8z"/>
 </g>
</svg>
