<?xml version="1.0" encoding="UTF-8"?>
<svg width="512pt" height="512pt" version="1.1" viewBox="0 0 512 512" xmlns="http://www.w3.org/2000/svg">
 <path d="m260.1 318.72c2.0391-11.719 8.1992-22.781 17.199-32.102 7.0586-7.3203 14.84-14.699 20.879-22.48 5.3789 3.2812 11.422 5.4219 17.98 6.1016 1.4414 0.16016 2.8203 0.19922 4.2383 0.19922 14.379 0 28.16-7.2812 36.961-19.301 4.3008 2.3594 9.0586 3.8398 14.02 4.3594 21.199 2.1016 40.602-14.281 43.32-36.602 1.7383-14.281-3.7812-28.059-14.238-36.559 0.26172-1.3398 0.51953-2.7188 0.66016-4.0391 1.5391-12.898-2.0391-25.898-9.8789-35.641-7.3203-9.1602-17.719-14.84-29.18-15.98-0.55859-0.058593-1.1211-0.10156-1.6797-0.16016-3.8984-17.398-17.039-30.98-33.898-34.66-6.5-22.219-24.941-38.242-47.301-40.5-22.32-2.2617-44.398 10.039-55.797 30.461-2.3594-0.66016-4.7188-1.0781-7.1211-1.3398-23.699-2.3594-45.461 15.059-50.121 39.379-20.082 3.4805-36.301 20.68-38.922 42.539-0.30078 2.4609-0.39844 4.9609-0.35938 7.418-15.82 6.5586-27.34 21.762-29.5 39.738-1.5781 13.059 2.1016 26.219 10.039 36.141 7.418 9.2617 17.922 15.059 29.539 16.18 12.039 1.1797 23.762-2.5586 33.18-10.441 5.3789 3.1797 11.359 5.1797 17.559 5.7812 7.4805 0.76172 14.84-0.51953 21.602-3.4414 8.0781 7.6211 15.82 15.418 19.859 25.539 7.8789 19.602 0 43.879-3.7383 63.602-4.1016 21.199-9.8789 42.082-15.301 63.078-2.3008 8.8594-4.2383 17.82-5.6797 26.781-0.76172 4.8594-2.4609 11.52-2.3984 17.52h-45.16c-2.8594 0-5.1797 2.3008-5.1797 5.1797 0 2.8594 2.3008 5.1797 5.1797 5.1797h198.24c2.8594 0 5.1797-2.3008 5.1797-5.1797 0-2.8594-2.3008-5.1797-5.1797-5.1797h-91.762c-0.26172-6.6992-3.0195-13.781-3.7383-20.32-1.0781-9.7812-1.2812-19.602-1.1211-29.441 0.30078-20.539 1.8398-41.02 0.92188-61.543-0.16016-3.4805-0.39844-6.9609-0.66016-10.441 0.35938-3.2188 0.76172-6.4609 1.3398-9.7812v-0.16016zm-40-71.281c2.7617-2.1992 5.3203-4.7188 7.582-7.5195 1.7383 1.6406 3.6406 3.1211 5.6406 4.4609 0.46094 6.3398 0.92188 12.699 1.2188 19.039-4-5.5781-8.9609-10.762-14.48-15.922zm34.219 42.039c-0.46094-2.9609-0.87891-6-1.3789-8.9609-1.6797-10.039-4-20.02-5.1797-30.102 1.6797 0.35938 3.3789 0.76172 5.0586 0.92188 9.8398 0.98047 19.559-1.3789 27.898-6.6602 1.8398 4 4.2383 7.582 7.0586 10.762-7.0586 8.1992-14.699 16.02-22.879 23.398-3.9414 3.5781-7.4805 7.0586-10.641 10.602z"/>
</svg>
